<svg width="319" height="134" viewBox="0 0 319 134" fill="none" xmlns="http://www.w3.org/2000/svg">
<rect width="319" height="134" rx="20" fill="#FEE7C7"/>
<mask id="mask0_423_5534" style="mask-type:alpha" maskUnits="userSpaceOnUse" x="0" y="0" width="319" height="134">
<rect width="319" height="134" rx="20" fill="#C4C4C4"/>
</mask>
<g mask="url(#mask0_423_5534)">
<path opacity="0.6" d="M331.937 74.2382C260.338 86.7535 202.307 113.956 157.858 155.849C148.145 165.002 143.521 170.224 143.227 172.425C143.024 173.95 144.321 174.3 146.48 173.765C148.265 173.323 150.912 172.263 154.493 170.579C160.52 167.744 168.396 163.571 182.744 155.71C183.553 155.267 197.037 147.864 201.25 145.562C208.786 141.443 215.22 137.965 221.477 134.638C228.263 131.031 234.624 127.719 240.723 124.628C280.981 104.226 309.176 93.82 324.522 95.587C332.45 96.5 336.436 97.8608 336.862 99.4537C337.233 100.839 334.825 102.953 329.588 105.701C325.094 108.057 319.158 110.637 308.516 114.97C307.856 115.239 298.018 119.227 294.986 120.467C289.548 122.693 284.976 124.608 280.599 126.506C256.458 136.974 240.303 146.165 231.218 155.873C226.597 160.81 224.995 163.76 226.508 165.14C227.787 166.305 231.151 165.791 236.79 163.871C245.425 160.932 256.359 155.996 280.442 144.532L280.981 144.276C315.816 127.692 327.652 122.554 332.393 122.911L332.476 121.821C327.418 121.441 315.912 126.435 280.508 143.29L279.969 143.546C255.935 154.986 245.012 159.917 236.436 162.837C231.271 164.595 228.073 165.084 227.249 164.333C226.477 163.63 227.887 161.035 232.02 156.618C240.971 147.054 257.03 137.918 281.037 127.508C285.406 125.614 289.972 123.702 295.403 121.478C298.433 120.238 308.27 116.251 308.931 115.982C319.606 111.635 325.563 109.047 330.099 106.668C335.852 103.65 338.499 101.326 337.923 99.1723C337.319 96.9172 333.091 95.4736 324.648 94.5014C308.995 92.699 280.702 103.141 240.225 123.654C234.12 126.748 227.752 130.064 220.96 133.674C214.699 137.003 208.261 140.483 200.722 144.604C196.508 146.906 183.023 154.31 182.215 154.752C167.888 162.602 160.023 166.769 154.024 169.591C150.505 171.246 147.912 172.285 146.215 172.705C144.695 173.081 144.263 172.964 144.315 172.569C144.558 170.753 149.192 165.521 158.612 156.642C202.98 114.826 260.948 87.6926 332.529 75.2444L332.932 75.1743L335.524 52.9268L335.018 52.8351C324.257 50.8865 316.418 50.2993 308.735 50.9941C299.743 51.8075 290.637 54.4191 277.734 59.7737C267.688 63.9427 268.669 63.4841 227.398 83.0431C224.29 84.5162 221.119 86.1301 217.884 87.8814C204.744 94.9958 190.891 104.162 175.58 115.546C164.609 123.703 130.48 151.005 125.345 154.567C120.029 158.256 117.094 159.446 116.53 158.439C115.766 157.078 117.476 152.241 121.999 143.659C130.203 128.094 157.164 107.595 207.936 75.5274C212.443 72.6806 217.199 69.7006 222.683 66.2834C227.232 63.4483 243.523 53.334 246.863 51.2542C256.15 45.4714 263.262 40.9986 269.841 36.7855C286.281 26.2577 298.345 17.9947 307.368 10.923C317.834 2.72068 323.982 -3.73376 325.698 -8.68919C327.655 -14.3415 323.917 -17.9893 314.413 -19.487C301.699 -21.4905 284.493 -14.801 262.578 -0.287849C244.52 11.6711 224.069 28.2773 197.397 51.9915C192.319 56.5064 187.002 61.2878 180.914 66.8061C177.72 69.7017 174.474 72.6533 170.13 76.6112C168.876 77.7544 163.799 82.3809 164.79 81.4782C162.636 83.4408 161.047 84.8878 159.493 86.3026C150.983 94.0474 144.807 99.6269 138.89 104.893C123.8 118.327 112.09 128.176 102.006 135.748C77.9241 153.83 63.9132 158.109 59.14 147.283C57.0105 142.453 57.018 137.464 59.0294 132.244C61.9535 124.656 69.0485 116.658 80.1473 107.851C89 100.826 99.3791 93.9495 115.476 84.0914C118.356 82.328 128.072 76.4226 129.274 75.689C134.625 72.4236 138.644 69.9309 142.375 67.5468C151.766 61.5456 158.6 56.6687 163.675 52.1893C176.038 41.2779 177.636 32.6421 166.471 25.7287C149.635 15.3042 135.302 16.9412 119.796 29.3991C111.548 36.0255 103.712 44.7021 90.3517 61.2469C88.615 63.3975 82.3803 71.1611 82.2648 71.3047C78.925 75.4559 76.3059 78.6832 73.6851 81.8648C66.9316 90.0633 60.8551 97.1006 54.6482 103.817C51.6456 107.067 48.6474 110.201 45.6278 113.239C33.0568 125.887 21.3442 133.117 11.1565 135.266C2.55954 137.08 -4.53857 135.116 -8.92718 130.34C-12.9442 125.969 -14.1445 119.712 -12.0343 114.077C-9.71709 107.888 -3.80633 103.213 4.97208 101.405C22.8246 97.7269 40.3912 82.1101 57.6718 57.9301C63.2989 50.0563 68.5602 41.7489 73.8806 32.6089C76.4401 28.2118 82.5944 17.1937 83.252 16.089C88.313 7.58692 102.711 -3.95829 126.414 -18.4819C132.552 -21.4734 136.667 -24.0629 138.734 -26.2553C140.964 -28.6218 140.902 -30.7345 138.467 -32.204C131.94 -36.1427 106.419 -19.9785 78.5718 5.02212C72.68 10.3116 67.8595 15.163 63.2071 20.3403C60.7335 23.093 53.8384 31.1834 53.0464 32.0816C49.2786 36.3548 46.1562 39.4208 42.3498 42.4255C37.8579 45.9714 32.4793 49.3282 25.4672 52.8859C13.3081 59.0549 -0.551062 58.5174 -9.95507 53.6164C-13.3665 51.8385 -15.1548 49.8333 -14.6673 48.809C-14.0852 47.5855 -10.5622 47.2596 -4.56593 48.4153C8.34075 50.9028 20.1561 48.1529 31.357 40.7127C40.8201 34.4269 49.6425 25.0151 59.0835 11.9053C62.9633 6.51774 67.8964 0.967197 74.0631 -5.16215C78.2456 -9.31931 91.8049 -21.8767 93.7995 -23.8978C96.3457 -26.4779 97.7838 -28.2717 98.2477 -29.5768C98.869 -31.3249 97.7999 -32.2831 95.3999 -32.2831C89.7309 -32.2831 83.6304 -28.2859 73.8208 -18.6349C68.2999 -13.2034 41.23 15.8065 35.8317 21.4441C21.4416 36.4722 3.38975 40.2437 -10.436 35.1436C-15.361 33.3269 -18.3262 30.6064 -17.8533 28.7854C-17.3246 26.7501 -12.6922 25.7643 -4.52674 26.7353C14.0129 28.9399 30.9836 18.237 50.3978 -3.2874C52.7736 -5.92142 55.1446 -8.66101 57.9581 -11.997C59.156 -13.4173 63.6424 -18.7856 64.6869 -20.0227C69.7614 -26.0328 72.8219 -29.3021 75.433 -31.3037C78.8715 -33.9394 80.9365 -36.4977 81.2632 -38.3971C81.6262 -40.507 79.9055 -41.4452 77.1665 -40.7984C70.7958 -39.2939 60.5071 -30.9116 49.426 -16.7657C32.7528 4.5189 13.6423 9.86033 -8.06231 -0.664707L-8.54272 0.317883C13.6478 11.0785 33.3115 5.5825 50.2912 -16.0935C61.2329 -30.0614 71.346 -38.3007 77.4197 -39.735C79.5006 -40.2264 80.3819 -39.7459 80.1816 -38.5817C79.9127 -37.0185 78.0034 -34.6531 74.7637 -32.1697C72.0678 -30.1032 68.9737 -26.7979 63.847 -20.726C62.8002 -19.4862 58.3135 -14.1176 57.1178 -12.6999C54.3115 -9.37243 51.948 -6.64148 49.5814 -4.01772C30.3867 17.2634 13.6801 27.7997 -4.39663 25.6501C-13.0837 24.6171 -18.1861 25.703 -18.9157 28.5117C-19.5846 31.0872 -16.2176 34.1763 -10.8171 36.1685C3.41149 41.4172 21.9271 37.5488 36.6258 22.1983C42.0387 16.5454 69.0909 -12.4453 74.592 -17.8574C84.2022 -27.3123 90.1208 -31.1903 95.3999 -31.1903C97.1398 -31.1903 97.5321 -30.8387 97.2132 -29.9415C96.8222 -28.8415 95.448 -27.1274 93.0168 -24.6639C91.0442 -22.6651 77.4901 -10.1124 73.2879 -5.93569C67.0822 0.232414 62.1118 5.82496 58.1918 11.2683C37.9623 39.3591 19.1292 51.8689 -4.35743 47.3423C-10.8475 46.0915 -14.7608 46.4535 -15.659 48.3409C-16.5146 50.139 -14.3613 52.5535 -10.4639 54.5847C-0.756201 59.6439 13.4765 60.196 25.9653 53.8596C33.0392 50.2706 38.479 46.8757 43.0315 43.2819C46.8955 40.2317 50.063 37.1214 53.871 32.8027C54.6726 31.8936 61.563 23.8086 64.0248 21.0691C68.6519 15.92 73.4449 11.0963 79.3066 5.83385C106.62 -18.6873 132.054 -34.7963 137.898 -31.2694C139.683 -30.1921 139.721 -28.8999 137.934 -27.0033C135.981 -24.9325 131.958 -22.4008 125.885 -19.438C101.989 -4.79887 87.4892 6.82771 82.308 15.5317C81.6409 16.6524 75.4831 27.6768 72.9312 32.0608C67.6267 41.1736 62.3828 49.4534 56.7777 57.2964C39.6449 81.2697 22.2567 96.7278 4.74979 100.334C-4.38409 102.216 -10.6076 107.139 -13.0625 113.695C-15.3162 119.713 -14.0329 126.403 -9.73671 131.078C-5.0739 136.152 2.42168 138.226 11.3839 136.335C21.8051 134.136 33.6974 126.796 46.4078 114.008C49.4369 110.96 52.4443 107.816 55.4557 104.558C61.6782 97.8238 67.7677 90.7713 74.5335 82.5579C77.1574 79.3726 79.779 76.1423 83.1212 71.9881C83.2376 71.8435 89.4713 64.0811 91.2069 61.9318C104.519 45.447 112.318 36.811 120.485 30.2497C135.644 18.0702 149.473 16.4908 165.891 26.6568C176.28 33.0893 174.839 40.8758 162.947 51.3714C157.923 55.8055 151.129 60.6537 141.782 66.627C138.059 69.0062 134.046 71.4953 128.701 74.7572C127.5 75.4898 117.783 81.3959 114.902 83.1604C98.7688 93.0403 88.3601 99.9364 79.4635 106.996C68.2251 115.914 61.0146 124.042 58.0049 131.853C55.8932 137.332 55.8853 142.619 58.1353 147.722C63.371 159.597 78.0268 155.122 102.666 136.621C112.78 129.026 124.51 119.16 139.622 105.708C145.542 100.439 151.721 94.8567 160.233 87.1094C161.788 85.6943 163.377 84.2472 165.53 82.2845C164.54 83.1871 169.616 78.5607 170.871 77.4176C175.215 73.4603 178.459 70.5092 181.653 67.6144C187.738 62.0982 193.052 57.3191 198.128 52.8068C224.764 29.1244 245.181 12.5457 263.186 0.622192C284.888 -13.7501 301.878 -20.3558 314.241 -18.4076C323.164 -17.0016 326.342 -13.9004 324.66 -9.04554C323.036 -4.35574 316.993 1.98909 306.689 10.0641C297.7 17.1097 285.66 25.3557 269.247 35.8663C262.673 40.0765 255.565 44.547 246.281 50.3276C242.942 52.4068 226.651 62.5213 222.1 65.357C216.615 68.7752 211.858 71.7564 207.348 74.6044C156.363 106.807 129.363 127.335 121.028 143.151C116.262 152.193 114.525 157.107 115.571 158.972C116.69 160.967 119.941 159.649 125.973 155.464C131.144 151.876 165.294 124.558 176.237 116.422C191.509 105.066 205.321 95.9276 218.408 88.8415C221.626 87.0994 224.78 85.4944 227.87 84.0299C269.108 64.4864 268.136 64.9407 278.156 60.7825C290.965 55.467 299.97 52.8844 308.835 52.0825C316.285 51.4087 323.904 51.9599 334.315 53.8193L331.937 74.2382Z" fill="#FFF7ED"/>
</g>
<path d="M27.983 113.272L12.7734 104.531C10.1379 103.017 9.21711 99.6322 10.7254 96.9778L16.1974 87.3197C17.7004 84.6653 21.0609 83.7379 23.6964 85.2569L38.9059 93.9983C41.5414 95.512 42.4623 98.8966 40.954 101.551L35.4819 111.209C33.979 113.864 30.6185 114.786 27.983 113.272Z" fill="#FDCE9D"/>
<path d="M23.3829 110.629L18.911 108.06C17.4768 107.234 16.9741 105.395 17.7944 103.95L25.7484 89.9108C26.5687 88.4663 28.3945 87.9653 29.8287 88.7914L34.3005 91.3606C32.8664 90.5344 31.0406 91.0408 30.2203 92.4799L22.2662 106.519C21.4512 107.964 21.9487 109.808 23.3829 110.629Z" fill="#FC3637"/>
<path d="M30.0299 113.24L14.8203 104.499C12.1848 102.985 11.264 99.6007 12.7722 96.9463L18.2443 87.2882C19.7473 84.6338 23.1078 83.7064 25.7432 85.2254L40.9528 93.9668C43.5883 95.4805 44.5091 98.8651 43.0009 101.52L37.5288 111.178C36.0206 113.832 32.6653 114.754 30.0299 113.24Z" stroke="#01101E" stroke-width="0.533063" stroke-miterlimit="10" stroke-linecap="round" stroke-linejoin="round"/>
<path d="M40.7891 95.5552C40.805 96.0882 40.6779 96.6265 40.3974 97.1222L32.4434 111.162C32.1682 111.647 31.7819 112.025 31.332 112.281" stroke="#01101E" stroke-width="0.533063" stroke-miterlimit="10" stroke-linecap="round" stroke-linejoin="round"/>
<path d="M33.2954 89.5697C33.2954 89.5697 31.6284 79.3626 28.9188 79.9809C26.2092 80.5991 27.8815 87.2138 33.2954 89.5697Z" stroke="#01101E" stroke-width="0.533063" stroke-miterlimit="10" stroke-linecap="round" stroke-linejoin="round"/>
<path d="M33.2969 89.5693C33.2969 89.5693 40.4465 93.6472 43.5742 92.9382C46.7018 92.2239 39.2399 88.0021 33.2969 89.5693Z" stroke="#01101E" stroke-width="0.533063" stroke-miterlimit="10" stroke-linecap="round" stroke-linejoin="round"/>
<path d="M33.3184 89.6439C33.3184 89.6439 53.439 85.076 58.7576 76.5105" stroke="#01101E" stroke-width="0.533063" stroke-miterlimit="10" stroke-linecap="round" stroke-linejoin="round"/>
<path d="M69.166 56.5223C69.166 56.5223 72.3519 47.8076 78.5437 41.9019C82.2799 38.3361 83.9893 36.6944 86.8629 38.2614C89.7365 39.8285 90.8002 42.5415 90.9537 44.8921C91.1125 47.2426 91.5411 54.1131 94.2295 57.0074C94.2295 57.0074 87.879 62.5507 80.9357 62.5507C73.9924 62.556 70.0816 59.294 69.166 56.5223Z" fill="#FC3637"/>
<path d="M93.6746 36.087C93.6746 36.087 90.7533 37.6701 90.0971 41.9075C90.0971 41.9075 88.7158 41.5823 87.1017 40.3031C85.5511 39.0719 84.9531 38.1444 84.9531 38.1444L88.2237 32.7664L93.6746 36.087Z" fill="#FDCE9D"/>
<path d="M88.4883 34.3921C88.4883 34.3921 89.3879 37.4839 91.002 39.0671C91.002 39.0671 91.8541 37.2866 93.4258 36.2418L88.4883 34.3921Z" fill="#01101E"/>
<path d="M96.7014 28.156C97.0824 31.6419 97.31 37.2812 94.2723 37.2812C91.2346 37.2812 86.2441 33.5341 86.2441 30.0269C86.2441 26.525 88.705 23.6841 91.7427 23.6841C94.7803 23.6841 96.3309 24.7235 96.7014 28.156Z" fill="#FDCE9D"/>
<path d="M96.4414 32.2551C97.2568 32.2551 97.9178 31.1883 97.9178 29.8723C97.9178 28.5563 97.2568 27.4895 96.4414 27.4895C95.6259 27.4895 94.9648 28.5563 94.9648 29.8723C94.9648 31.1883 95.6259 32.2551 96.4414 32.2551Z" stroke="#01101E" stroke-width="1.06613" stroke-miterlimit="10"/>
<path d="M95.0071 29.1843C95.0071 29.1843 93.176 29.9999 92.0117 30.0426C92.0117 30.0426 93.8375 29.872 94.9912 30.2878C94.9912 30.2878 94.9436 30.2238 94.97 29.728C94.9912 29.3655 95.0071 29.1843 95.0071 29.1843Z" stroke="#01101E" stroke-width="1.06613" stroke-miterlimit="10" stroke-linecap="round" stroke-linejoin="round"/>
<path d="M97.1785 32.084L97.4484 33.8324H96.1465" stroke="#01101E" stroke-width="0.533063" stroke-miterlimit="10" stroke-linecap="round" stroke-linejoin="round"/>
<path d="M92.6152 33.4431C92.6152 33.4431 92.9645 34.3067 94.2293 34.4666" stroke="#01101E" stroke-width="0.533063" stroke-miterlimit="10" stroke-linecap="round" stroke-linejoin="round"/>
<path d="M95.9493 23.9931C95.8276 23.9771 95.7218 23.9185 95.6424 23.8279C93.8378 21.7705 90.7948 21.1895 88.3234 22.5913C85.5344 24.1797 84.5236 27.7135 86.016 30.5438C86.0583 30.6238 86.1589 30.6504 86.2383 30.6078L96.3674 24.8353L97.1189 24.4249C97.2512 24.3503 97.2194 24.153 97.0713 24.1264L95.9493 23.9931Z" fill="#FC3637"/>
<path d="M99.2795 23.8227C99.3959 25.0061 99.1207 27.2982 93.6328 26.3387C93.6328 26.3387 96.9986 24.5583 98.528 23.3802C98.9196 23.0764 99.2531 23.5721 99.2795 23.8227Z" fill="#01101E"/>
<path d="M92.9814 26.7646C92.9814 26.7646 93.6323 28.5076 91.2667 31.3272C90.2189 32.5744 90.293 33.6831 89.3245 35.021C88.5731 36.0603 85.4507 37.6167 84.7416 35.3887C83.7943 32.4039 86.2392 30.6077 86.2392 30.6077L92.9814 26.7646Z" fill="#FF7465"/>
<path d="M83.2227 50.1104C83.2227 50.1104 83.355 56.7356 86.345 61.5487" stroke="#01101E" stroke-width="0.533063" stroke-miterlimit="10" stroke-linecap="round" stroke-linejoin="round"/>
<path d="M90.2862 28.2996L86.2324 30.6077" stroke="#01101E" stroke-width="0.533063" stroke-miterlimit="10" stroke-linecap="round" stroke-linejoin="round"/>
<path d="M139.124 60.3175C139.626 58.2867 139.938 55.4458 139.938 52.3064C139.938 46.1341 138.737 41.1292 137.255 41.1292C135.774 41.1292 134.572 46.1341 134.572 52.3064C134.572 55.4511 134.885 58.2867 135.387 60.3175H139.124Z" fill="#01101E"/>
<path d="M139.123 67.4653C139.626 69.4961 139.938 72.337 139.938 75.4764C139.938 81.6487 138.737 86.6537 137.255 86.6537C135.774 86.6537 134.572 81.6487 134.572 75.4764C134.572 72.3317 134.885 69.4961 135.387 67.4653H139.123Z" fill="#01101E"/>
<path d="M135.938 69.5492H133.975V58.5852H135.938C138.944 58.5852 141.378 61.0371 141.378 64.0646C141.378 67.0921 138.944 69.5492 135.938 69.5492Z" fill="#FDCE9D"/>
<path d="M24.1725 45.7452C27.1361 46.9391 32.6082 49.5562 36.4767 57.3914L23.2676 63.2705L22.4526 46.9924C22.4102 46.065 23.3258 45.3987 24.1725 45.7452Z" fill="#FDCE9D"/>
<path d="M24.3949 63.2652L23.5799 46.9871C23.5323 46.065 24.4478 45.3987 25.2998 45.7452C28.2634 46.9391 33.7355 49.5562 37.604 57.3914" stroke="#01101E" stroke-width="0.533063" stroke-miterlimit="10" stroke-linecap="round" stroke-linejoin="round"/>
<path d="M106.106 50.4728C106.106 50.4728 104.835 44.8496 102.74 43.2399C102.491 43.048 102.131 43.1546 102.015 43.4424L99.4375 49.7479L106.106 50.4728Z" fill="#FDCE9D"/>
<path d="M129.861 54.1187C123.786 52.7808 111.879 50.4836 100.257 49.0764C99.7437 49.0125 99.2462 49.2523 98.9658 49.6894C94.1817 57.1888 82.2532 63.8888 73.4736 59.2516C69.1605 56.9703 66.0011 53.8149 64.1965 49.3323C63.9795 48.7939 63.4768 48.4208 62.9052 48.4794C38.8631 50.926 21.1133 59.0011 21.1133 62.9507C21.1133 67.897 34.4812 73.2537 52.485 76.3505C52.485 76.3505 97.2829 85.4223 130.359 74.7888C132.513 74.0959 133.973 72.0758 133.973 69.7945V59.2622C133.968 56.7891 132.259 54.6464 129.861 54.1187Z" fill="#FF7465"/>
<path d="M24.0387 64.2137L36.5599 65.0719C36.9251 65.0985 37.0521 65.5729 36.7451 65.7754C34.0409 67.5663 26.1662 72.5287 23.0015 71.8411C19.5298 71.0895 22.9803 65.4876 23.6947 64.3896C23.7688 64.2724 23.9011 64.2031 24.0387 64.2137Z" fill="#FDCE9D"/>
<path d="M62.4562 74.5275C61.8264 73.4562 62.1969 72.0703 63.2606 71.436C66.4676 69.5279 73.739 66.1592 84.3814 66.7722C94.3889 67.3479 99.3846 69.4479 101.554 70.7325C102.449 71.2601 103.041 72.1769 103.174 73.211C103.772 77.7948 105.132 91.7704 99.8927 94.3128C95.2038 96.5941 76.4591 98.3903 62.4562 74.5275Z" fill="#FDCE9D"/>
<path d="M84.3809 66.7722C84.3809 66.7722 102.649 67.5557 103.173 73.211" stroke="#01101E" stroke-width="0.533063" stroke-miterlimit="10" stroke-linecap="round" stroke-linejoin="round"/>
<path d="M28.0394 64.491L36.5598 65.0719C36.5598 65.0719 37.4065 65.3491 36.5598 65.8981C36.5598 65.8981 31.7333 69.256 27.9336 70.7325" stroke="#01101E" stroke-width="0.533063" stroke-miterlimit="10" stroke-linecap="round" stroke-linejoin="round"/>
<path d="M132.312 108.038C135.08 108.065 136.98 105.24 135.926 102.665C134.598 99.4087 132.577 96.0507 130.084 96.8875C130.084 96.8875 128.951 96.9569 129.084 100.379C129.084 100.379 124.691 93.9187 119.034 95.9495C114.843 97.4579 118.071 102.457 118.071 102.457C118.071 102.457 116.309 102.58 113.541 103.145C109.386 103.998 108.254 107.793 108.254 107.793L132.312 108.038Z" fill="#FDCE9D"/>
<path d="M58.0581 32.452C58.0581 32.452 54.142 20.0596 48.1407 21.5573C48.1407 21.5573 46.6589 21.6213 46.8335 24.9473C46.8335 24.9473 41.716 19.3667 35.175 20.0596C30.9783 20.5073 32.9999 27.6869 32.9999 27.6869C32.9999 27.6869 26.787 23.2576 26.5488 27.6389C26.3213 31.7858 19.6426 32.1536 19.6426 32.1536L58.0581 32.452Z" fill="#FDCE9D"/>
<path d="M15.4668 34.3923H41.8851" stroke="#01101E" stroke-width="0.533063" stroke-miterlimit="10" stroke-linecap="round" stroke-linejoin="round"/>
<path d="M130.665 108.038C133.433 108.065 135.333 105.24 134.28 102.665C132.952 99.4087 130.93 96.0507 128.437 96.8875C128.437 96.8875 127.305 96.9569 127.437 100.379C127.437 100.379 123.045 93.9187 117.387 95.9495C113.196 97.4579 116.424 102.457 116.424 102.457C116.424 102.457 114.662 102.58 111.894 103.145C107.74 103.998 106.607 107.793 106.607 107.793" stroke="#01101E" stroke-width="0.533063" stroke-miterlimit="10" stroke-linecap="round" stroke-linejoin="round"/>
<path d="M183.185 48.57H177.295V44.075H183.185V48.57ZM173.823 58.8C173.668 58.304 173.575 57.498 173.575 56.785C173.575 53.065 176.52 50.275 180.24 50.275C184.115 50.275 186.75 52.91 186.75 56.63C186.75 57.498 186.564 58.304 186.378 58.8H188.61C188.734 58.8 188.92 58.924 188.92 61.9C188.92 64.845 188.734 65 188.61 65H184.27C182.255 65 181.015 64.814 180.085 64.287C179.31 64.752 177.915 65 176.21 65H168.305C164.43 65 162.26 62.83 162.26 58.8V53.375H168.15V58.025C168.15 58.49 168.305 58.8 168.925 58.8H173.823ZM180.24 58.8C180.86 58.49 181.325 57.715 181.325 57.095C181.325 56.475 180.953 56.01 180.24 56.01C179.527 56.01 179.155 56.475 179.155 57.095C179.155 57.715 179.62 58.428 180.24 58.8ZM198.984 58.8C199.108 58.8 199.294 58.924 199.294 61.9C199.294 64.845 199.108 65 198.984 65H198.054C196.659 65 195.45 64.69 194.644 63.915C193.869 64.69 192.939 65 191.234 65H188.599C188.475 65 188.289 64.814 188.289 61.9C188.289 58.893 188.475 58.8 188.599 58.8H191.234C191.699 58.8 191.854 58.645 191.854 58.335V53.375H197.744V58.335C197.744 58.583 197.899 58.8 198.364 58.8H198.984ZM195.109 66.86V71.355H185.809V66.86H195.109ZM210.297 48.57H204.407V44.075H210.297V48.57ZM200.935 58.8C200.78 58.304 200.687 57.498 200.687 56.785C200.687 53.065 203.632 50.275 207.352 50.275C211.227 50.275 213.862 52.91 213.862 56.63C213.862 57.498 213.676 58.304 213.49 58.8H215.722C215.877 58.8 216.032 58.924 216.032 61.9C216.032 64.845 215.877 65 215.722 65H211.382C209.367 65 208.127 64.814 207.197 64.287C206.422 64.752 205.027 65 203.322 65H198.982C198.858 65 198.672 64.845 198.672 61.9C198.672 58.924 198.858 58.8 198.982 58.8H200.935ZM207.352 56.01C206.639 56.01 206.267 56.475 206.267 57.095C206.267 57.715 206.732 58.428 207.352 58.8C207.972 58.49 208.437 57.715 208.437 57.095C208.437 56.475 208.065 56.01 207.352 56.01ZM226.574 48.57H220.684V44.075H226.574V48.57ZM217.584 56.63L218.049 50.74H226.109C228.744 50.74 230.759 51.825 232.371 57.56L230.604 58.8H232.309H234.169C234.293 58.8 234.479 59.048 234.479 61.9C234.479 64.969 234.293 65 234.169 65H231.534C229.364 65 227.814 64.225 226.729 62.52L225.644 63.14C223.474 64.38 221.459 65 217.894 65H215.724C215.6 65 215.414 64.814 215.414 61.9C215.414 58.893 215.6 58.8 215.724 58.8H218.204C221.149 58.8 223.009 58.49 225.489 57.405C225.334 56.785 225.024 56.63 224.559 56.63H217.584ZM243.77 47.02V51.515H234.47V47.02H243.77ZM237.415 58.304V53.375H243.15V58.645C243.15 62.52 240.67 65 236.795 65H234.16C234.036 65 233.85 64.814 233.85 61.9C233.85 58.893 234.036 58.8 234.16 58.8H236.795C237.136 58.8 237.415 58.583 237.415 58.304ZM255.1 65C253.86 58.025 252.465 54.305 249.365 48.415L254.79 45.16C256.805 48.88 257.425 51.36 257.983 55.39C258.355 51.36 259.13 48.88 261.145 45.16L266.57 48.415C263.47 54.305 262.075 58.025 260.835 65H255.1ZM274.946 49.097C278.294 49.097 281.735 52.259 281.735 55.7C281.735 59.141 278.294 62.334 274.946 62.334C271.505 62.334 268.126 59.141 268.126 55.7C268.126 52.259 271.505 49.097 274.946 49.097ZM274.946 56.754C275.504 56.754 275.969 56.258 275.969 55.7C275.969 55.142 275.504 54.646 274.946 54.646C274.357 54.646 273.861 55.142 273.861 55.7C273.861 56.258 274.357 56.754 274.946 56.754ZM287.89 55.173C285.162 55.173 283.674 53.282 283.674 50.647C283.674 47.609 285.162 45.749 287.89 45.749C290.649 45.749 292.137 47.609 292.137 50.647C292.137 53.282 290.649 55.173 287.89 55.173ZM292.571 65H286.526L295.392 46.028H301.437L292.571 65ZM287.89 51.701C288.572 51.701 288.913 51.298 288.913 50.523C288.913 49.655 288.572 49.221 287.89 49.221C287.27 49.221 286.898 49.655 286.898 50.523C286.898 51.298 287.27 51.701 287.89 51.701ZM300.042 65.31C297.345 65.31 295.795 63.419 295.795 60.784C295.795 57.746 297.345 55.855 300.042 55.855C302.77 55.855 304.289 57.746 304.289 60.784C304.289 63.419 302.77 65.31 300.042 65.31ZM300.042 61.807C300.724 61.807 301.034 61.435 301.034 60.629C301.034 59.792 300.724 59.358 300.042 59.358C299.391 59.358 299.05 59.792 299.05 60.629C299.05 61.435 299.391 61.807 300.042 61.807ZM163.805 93.778C163.895 93.778 163.985 93.85 163.985 95.398C163.985 96.91 163.895 97 163.805 97H162.977C160.727 97 159.611 95.686 159.611 93.418V85.462H162.671V93.166C162.671 93.598 162.833 93.778 163.211 93.778H163.805ZM164.563 93.778C164.905 93.778 165.103 93.634 165.103 93.256V92.986C165.103 90.646 166.543 89.134 168.901 89.134C171.241 89.134 172.555 90.556 172.555 93.058V93.22C172.555 93.634 172.753 93.778 173.095 93.778H173.671C173.743 93.778 173.851 93.85 173.851 95.398C173.851 96.91 173.743 97 173.671 97H173.167C172.177 97 171.511 96.802 171.097 96.316C170.485 96.802 169.693 97 168.775 97C167.767 97 167.029 96.712 166.669 96.298C166.219 96.802 165.517 97 164.563 97H163.987C163.915 97 163.807 96.91 163.807 95.398C163.807 93.85 163.915 93.778 163.987 93.778H164.563ZM169.621 93.058C169.621 92.464 169.333 92.14 168.811 92.14C168.253 92.14 167.983 92.464 167.983 93.058C167.983 93.598 168.253 93.904 168.811 93.904C169.369 93.904 169.621 93.616 169.621 93.058ZM182.528 83.608V86.02H179.99V83.608H182.528ZM178.604 89.098V86.668H183.914V89.098H178.604ZM183.968 90.43H186.974V93.382C186.974 95.614 185.588 97 183.356 97C182.402 97 181.7 96.766 181.25 96.262C180.8 96.766 180.224 97 179.18 97C178.19 97 177.488 96.766 177.056 96.262C176.606 96.766 176.012 97 174.968 97H173.852C173.78 97 173.672 96.91 173.672 95.398C173.672 93.85 173.78 93.778 173.852 93.778H174.968C175.418 93.778 175.598 93.58 175.598 93.256V90.43H178.604V93.256C178.604 93.562 178.766 93.778 179.198 93.778C179.63 93.778 179.81 93.562 179.81 93.256V90.43H182.816V93.238C182.816 93.562 183.014 93.778 183.392 93.778C183.752 93.778 183.968 93.562 183.968 93.238V90.43ZM196.014 93.778C196.32 93.778 196.572 93.634 196.572 93.382C196.572 93.148 196.428 92.824 194.808 88.63L197.688 87.262L199.83 93.166C199.974 93.562 200.208 93.778 200.55 93.778H201.108C201.18 93.778 201.288 93.922 201.288 95.398C201.288 96.982 201.18 97 201.108 97H200.298C199.614 97 198.822 96.856 198.318 96.262C197.742 96.856 197.166 97 196.518 97H192.144L191.91 93.778H196.014ZM206.057 90.43H209.063V93.454C209.063 95.632 207.677 97 205.499 97H201.287C201.215 97 201.107 96.91 201.107 95.398C201.107 93.85 201.215 93.778 201.287 93.778H205.535C205.823 93.778 206.057 93.58 206.057 93.292V90.43ZM206.759 98.332V100.762H201.467V98.332H206.759ZM209.322 97.972C210.654 97.972 211.374 97.36 211.374 96.172V90.43H214.452V93.184C214.452 93.616 214.614 93.778 215.064 93.778H215.658C215.73 93.778 215.838 93.922 215.838 95.398C215.838 96.91 215.73 97 215.658 97H215.316C214.974 97 214.65 96.946 214.416 96.802C214.164 99.268 212.418 101.194 209.52 101.194H208.728L208.476 97.972H209.322ZM222.024 87.442H218.91V84.994H222.024V87.442ZM217.236 93.778C218.964 93.778 220.026 93.598 221.43 92.932L221.952 92.644C221.808 92.104 221.556 91.96 221.088 91.96H217.02L217.29 88.864H221.844C223.896 88.864 224.85 89.998 225.714 93.562L221.772 95.848C220.386 96.676 219.162 97 217.074 97H215.832C215.76 97 215.652 96.91 215.652 95.398C215.652 93.85 215.76 93.778 215.832 93.778H217.236ZM236.999 90.646H233.867V88.216H236.999V90.646ZM241.553 93.238C241.553 93.616 241.733 93.778 242.129 93.778H242.759C242.831 93.778 242.939 93.85 242.939 95.398C242.939 96.91 242.831 97 242.759 97H242.201C241.931 97 241.661 96.964 241.499 96.856C241.211 99.358 239.303 101.194 236.387 101.194H235.613C232.463 101.194 230.609 99.232 230.609 96.01V92.23H233.687V95.938C233.687 97.306 234.299 97.972 235.667 97.972H236.387C237.737 97.972 238.493 97.306 238.493 96.172V90.43H241.553V93.238ZM250.655 93.778C250.727 93.778 250.835 93.85 250.835 95.398C250.835 96.91 250.727 97 250.655 97H250.043C249.179 97 248.477 96.802 248.027 96.298C247.577 96.802 247.001 97 246.011 97H242.933C242.861 97 242.753 96.91 242.753 95.398C242.753 93.85 242.861 93.778 242.933 93.778H246.011C246.371 93.778 246.569 93.616 246.569 93.31V90.43H249.629V93.274C249.629 93.58 249.791 93.778 250.187 93.778H250.655ZM247.739 98.332V100.762H242.447V98.332H247.739ZM251.532 93.778C251.838 93.778 252.09 93.58 252.09 93.238V85.462H255.15V93.454C255.15 95.704 253.836 97 251.658 97H250.83C250.758 97 250.65 96.928 250.65 95.398C250.65 93.85 250.758 93.778 250.83 93.778H251.532ZM264.814 96.082C264.814 99.304 263.014 101.194 260.08 101.194H257.452L257.2 98.026H260.548C261.376 98.026 261.808 97.612 261.808 97H261.106C258.37 97 257.326 95.92 257.326 93.346C257.326 91.006 258.82 89.314 261.052 89.314C263.41 89.314 264.814 90.844 264.814 93.508V96.082ZM260.26 93.184C260.26 93.742 260.494 93.976 261.142 93.976H261.88V93.31C261.88 92.626 261.592 92.266 261.034 92.266C260.512 92.266 260.26 92.662 260.26 93.184ZM266.875 97V85.462H269.935V97H266.875ZM283.762 96.964C283.762 96.622 283.528 96.478 283.222 96.478H279.748V92.716C279.748 90.448 281.152 88.936 283.384 88.936H286.192L286.354 92.068H283.438C283.096 92.068 282.808 92.284 282.808 92.698V93.31H283.708C286.012 93.31 286.822 94.588 286.822 96.478C286.822 99.088 284.716 101.194 281.656 101.194H280.252C277.102 101.194 275.248 99.232 275.248 96.01V92.23H278.326V95.938C278.326 97.306 278.938 97.972 280.306 97.972H281.782C283.222 97.972 283.762 97.54 283.762 96.964ZM288.878 97V85.462H291.938V97H288.878ZM297.573 93.184C297.573 93.616 297.735 93.778 298.185 93.778H298.779C298.851 93.778 298.959 93.922 298.959 95.398C298.959 96.91 298.851 97 298.779 97H298.437C298.095 97 297.771 96.946 297.537 96.802C297.285 99.268 295.539 101.194 292.641 101.194H290.751L290.499 97.972H292.443C293.775 97.972 294.495 97.36 294.495 96.172V90.43H297.573V93.184ZM304.119 93.454C304.119 95.632 302.733 97 300.555 97H298.953C298.881 97 298.773 96.91 298.773 95.398C298.773 93.85 298.881 93.778 298.953 93.778H300.555C300.879 93.778 301.113 93.58 301.113 93.292V90.43H304.119V93.454ZM301.959 100.762H298.827V98.332H301.959V100.762Z" fill="#FF7465"/>
</svg>
