<svg width="24" height="24" viewBox="0 0 24 24" fill="none" xmlns="http://www.w3.org/2000/svg">
<path fill-rule="evenodd" clip-rule="evenodd" d="M3.51733 3.13172C3.02835 2.85545 2.408 3.02788 2.13172 3.51686C1.85545 4.00584 2.02788 4.6262 2.51686 4.90247L4.19444 5.8503C4.28811 5.90322 4.35109 5.99747 4.36416 6.10426L4.55355 7.65239H4.54647L5.10794 15.0079C5.21584 16.4214 6.39424 17.5132 7.81185 17.5132H17.5038C18.7035 17.5132 19.7606 16.725 20.1029 15.5752L21.9428 9.39517C22.2016 8.5258 21.5503 7.65239 20.6432 7.65239H7.20157C6.85958 7.65239 6.57133 7.39726 6.5298 7.0578L6.38294 5.8573C6.29149 5.10976 5.8506 4.45002 5.19491 4.07956L3.51733 3.13172ZM14.4882 10.5844C14.4882 10.0238 14.9427 9.56925 15.5033 9.56925H18.1156C18.6762 9.56925 19.1307 10.0238 19.1307 10.5844C19.1307 11.1451 18.6762 11.5996 18.1156 11.5996H15.5033C14.9427 11.5996 14.4882 11.1451 14.4882 10.5844ZM8.37413 19.8264C8.37413 20.5417 7.79429 21.1215 7.07901 21.1215C6.36373 21.1215 5.78388 20.5417 5.78388 19.8264C5.78388 19.1111 6.36373 18.5313 7.07901 18.5313C7.79429 18.5313 8.37413 19.1111 8.37413 19.8264ZM18.9174 19.8264C18.9174 20.5417 18.3376 21.1215 17.6223 21.1215C16.907 21.1215 16.3272 20.5417 16.3272 19.8264C16.3272 19.1111 16.907 18.5313 17.6223 18.5313C18.3376 18.5313 18.9174 19.1111 18.9174 19.8264Z" fill="#D8D8D8"/>
</svg>
