<svg width="30" height="30" viewBox="0 0 30 30" fill="none" xmlns="http://www.w3.org/2000/svg">
<circle cx="15" cy="15" r="15" fill="white"/>
<path d="M18.8062 8.52669C18.4069 8.39269 17.9869 8.33336 17.5663 8.33336C16.6396 8.32669 15.7403 8.63336 14.9996 9.19935C14.9396 9.15335 14.8663 9.11268 14.7996 9.07335C14.733 9.03268 14.613 8.93335 14.513 8.88002L14.2596 8.76669C14.1263 8.69335 13.987 8.64002 13.8396 8.59269C13.8263 8.58002 13.8063 8.56602 13.7796 8.55336H13.7403C13.3463 8.41936 12.9396 8.34602 12.5196 8.33336H12.4463C12.2596 8.33336 12.0736 8.34602 11.8863 8.37336H11.8063C11.6063 8.39936 11.407 8.44602 11.2137 8.51269C8.72635 9.32668 7.83969 12.0267 8.59302 14.3866C9.01968 15.5926 9.707 16.6866 10.6003 17.5859C11.8996 18.8393 13.3203 19.9459 14.8463 20.8926L14.8541 20.8974C14.9557 20.9603 15.084 20.961 15.1863 20.8992C16.7069 19.9459 18.1196 18.8393 19.4069 17.5926C20.3062 16.6933 20.9929 15.5926 21.4129 14.3866C22.1535 12.0267 21.2669 9.32668 18.8062 8.52669Z" fill="#FC3637"/>
</svg>
