<svg width="24" height="24" viewBox="0 0 24 24" fill="none" xmlns="http://www.w3.org/2000/svg">
<path d="M17.7099 2.29016C17.1109 2.08916 16.4809 2.00016 15.8499 2.00016C14.4599 1.99016 13.1109 2.45016 11.9999 3.29915C11.9099 3.23015 11.7999 3.16915 11.6999 3.11015C11.5999 3.04915 11.4199 2.90015 11.2699 2.82015L10.8899 2.65015C10.6899 2.54015 10.4809 2.46015 10.2599 2.38916C10.2399 2.37016 10.2099 2.34916 10.1699 2.33016H10.1109C9.51994 2.12916 8.90994 2.01916 8.27995 2.00016H8.16995C7.88996 2.00016 7.61096 2.01916 7.32996 2.06016H7.20996C6.90997 2.09916 6.61097 2.16916 6.32097 2.26916C2.59001 3.49014 1.26002 7.5401 2.39001 11.0801C3.03001 12.889 4.06099 14.53 5.40098 15.879C7.34996 17.759 9.48094 19.419 11.7699 20.839L11.7816 20.8462C11.934 20.9406 12.1265 20.9417 12.2799 20.849C14.5609 19.419 16.6799 17.759 18.6108 15.889C19.9598 14.54 20.9898 12.889 21.6198 11.0801C22.7308 7.5401 21.4008 3.49014 17.7099 2.29016Z" fill="#D8D8D8"/>
</svg>
