<svg width="24" height="24" viewBox="0 0 24 24" fill="none" xmlns="http://www.w3.org/2000/svg">
<path d="M2 19.0091V10.6752C2 9.47701 2.51959 8.33768 3.42431 7.55207L10.192 1.67542C11.2291 0.774865 12.7708 0.774861 13.8079 1.67541L20.5757 7.55207C21.4804 8.33768 22 9.47701 22 10.6752V19.0091C22 20.5321 20.7654 21.7666 19.2425 21.7666H16.8433C16.0818 21.7666 15.4645 21.1494 15.4645 20.3879V16.6386C15.4645 15.8771 14.8472 15.2598 14.0858 15.2598H10.1394C9.37789 15.2598 8.7606 15.8771 8.7606 16.6386V20.3879C8.7606 21.1494 8.14332 21.7666 7.38185 21.7666H4.75751C3.23458 21.7666 2 20.5321 2 19.0091Z" fill="#FF7465"/>
</svg>
