<svg width="20" height="21" viewBox="0 0 20 21" fill="none" xmlns="http://www.w3.org/2000/svg">
<path fill-rule="evenodd" clip-rule="evenodd" d="M11.3358 0C16.1317 0 20.0005 3.92658 20.0005 8.74665C20.0005 13.5667 16.1317 17.4933 11.3358 17.4933C6.53997 17.4933 2.67118 13.5667 2.67118 8.74665C2.67118 6.43048 3.58138 4.20695 5.20506 2.5658C6.82912 0.92427 9.03422 0 11.3358 0ZM17.9103 8.74665C17.9103 5.05984 14.9563 2.09024 11.3358 2.09024C9.59582 2.09024 7.9248 2.78879 6.69097 4.03589C5.45677 5.28337 4.76142 6.97767 4.76142 8.74665C4.76142 12.4335 7.71541 15.4031 11.3358 15.4031C14.9563 15.4031 17.9103 12.4335 17.9103 8.74665ZM2.88945 15.6448C3.29759 15.2366 3.95933 15.2366 4.36747 15.6448C4.77562 16.0529 4.77562 16.7146 4.36748 17.1228L1.78413 19.7061C1.37599 20.1143 0.714253 20.1143 0.306112 19.7061C-0.102037 19.298 -0.102037 18.6363 0.306112 18.2281L2.88945 15.6448Z" fill="#AAAAAA"/>
</svg>
